<svg version="1" xmlns="http://www.w3.org/2000/svg" width="1400" height="1400" viewBox="0 0 1050.000000 1050.000000"><path d="M0 525v525h1050V0H0v525zm581-326.2c0 1.1-9.1 13.1-20.2 26.8-11.1 13.7-36.6 45.1-56.7 69.9-20 24.7-39.5 48.7-43.3 53.2l-6.9 8.3-67.2.2-67.2.3-.3 83.1-.2 83-59.6 73.5c-32.7 40.4-60.2 73.5-61 73.7-1.2.3-1.4-30.7-1.4-236.1 0-130 .3-236.7.7-237 .3-.4 86.7-.7 192-.7 185.4 0 191.3.1 191.3 1.8zm271.8.2c.1.8-58.5 74.6-130.3 163.9-114.1 141.9-130.3 162.6-129.4 164.3.6 1 52.8 66.4 116.2 145.1 63.3 78.8 121.5 151.2 129.4 161 7.9 9.8 14.3 18.5 14.3 19.3 0 1.2-11.9 1.4-88.2 1.2l-88.3-.3-17-21.1c-9.3-11.7-28.9-36-43.4-54-161.7-201-202.2-251.7-201.9-252.9.3-1.3 31.4-40.2 211.4-264 27.8-34.7 51.1-63.3 51.8-63.7.6-.4 40.2-.7 88.1-.5 76.7.2 87 .4 87.3 1.7z"/></svg>